<?xml version="1.0" encoding="UTF-8"?>
<svg xmlns="http://www.w3.org/2000/svg" version="1.1" viewBox="0 0 120 120">
  <defs>
    <style>
      .cls-1 {
        stroke: #fff;
      }

      .cls-1, .cls-2 {
        fill: none;
        stroke-miterlimit: 10;
      }

      .cls-3 {
        fill: #fff;
      }

      .cls-2 {
        stroke: #000;
      }
    </style>
  </defs>
  <!-- Generator: Adobe Illustrator 28.7.2, SVG Export Plug-In . SVG Version: 1.2.0 Build 154)  -->
  <g>
    <g id="Layer_1">
      <g>
        <g>
          <rect x=".5" y=".5" width="119" height="119"/>
          <path class="cls-3" d="M119,1v118H1V1h118M120,0H0v120h120V0h0Z"/>
        </g>
        <polyline class="cls-1" points="120 120 60 0 0 120"/>
        <polygon class="cls-3" points="120 120 60 0 0 120 60 60 120 120"/>
        <path class="cls-3" d="M60,1c32.53,0,59,26.47,59,59s-26.47,59-59,59S1,92.53,1,60,27.47,1,60,1M60,0C26.86,0,0,26.86,0,60s26.86,60,60,60,60-26.86,60-60S93.14,0,60,0h0Z"/>
        <line class="cls-1" x1="60" y1="0" x2="60" y2="120"/>
        <line class="cls-1" x1="0" y1="60" x2="120" y2="60"/>
        <polyline class="cls-1" points="120 0 0 120 60 60"/>
        <line class="cls-1" x1="120" y1="120" x2="0" y2="0"/>
        <line class="cls-2" x1="90" y1="60" x2="30" y2="60"/>
        <line class="cls-2" x1="80" y1="40" x2="60" y2="60"/>
        <line class="cls-2" x1="40" y1="40" x2="60" y2="60"/>
        <line class="cls-2" x1="60" y1="0" x2="60" y2="60"/>
        <path class="cls-2" d="M108,96c-1.73,2.3-3.62,4.47-5.65,6.5"/>
        <path class="cls-2" d="M12,96c1.73,2.3,3.62,4.47,5.65,6.5"/>
      </g>
    </g>
  </g>
</svg>