<svg id="Layer_1" data-name="Layer 1" xmlns="http://www.w3.org/2000/svg" viewBox="0 0 2000 2000"><defs><style>.cls-1{fill:gray;}</style></defs><path class="cls-1" d="M811.7277,1331.8624c-19.1667-51.7111-87.8557-135.6444-224.5334-272.3333L559.55,1031.8847c-69.5109,65.1-118.9775,175.5889-118.9775,345.3888,0,13.0778.7,26.0333,1.7,38.9222,191.4888-.1,298.6445-10.8778,348.5109-33.7777a40.1925,40.1925,0,0,0,20.9445-50.5556m-215.5-329.0555,23.8444,23.8444C756.75,1163.34,840.6832,1232.018,892.3945,1251.1847A40.1626,40.1626,0,0,0,942.95,1230.24c14.5556-31.6889,24.2113-96.7,29.3444-203.3445-76.3445-12.111-114.6444-70.9889-218.6334-70.9889-53.5332,0-108.6443,14.4667-157.433,46.9m561.7777-808.5556C1065.9721,108.1514,1028.6389.007,1028.6389.007H976.75V796.9513c0,91.8667-1.4665,167.9223-4.4555,229.9444a167.1578,167.1578,0,0,0,55.4,0c-2.989-62.0221-4.4555-138.0777-4.4555-229.9444V488.64c252.7,40,426.4221,199.3666,426.4221,361.9334,0,53.4444-19.5221,102.2667-51.9,148.2666a280.914,280.914,0,0,1,40.1777,30.6667c60.3109-75.6445,92.8-158.9333,92.8-258.9334,0-178.3333-148.2222-366.2554-372.7332-576.3222M892.3945,1627.7291c-48.6111,18.0111-125.7222,79.8333-248.3558,200.7444,74.4114,75.5445,151.667,121.3445,198.1558,121.3445,78.3888,0,98.0221-36.1556,133.4333-48.5445-3.3-132.5222-13.9224-211.7666-32.6779-252.6a40.1625,40.1625,0,0,0-50.5554-20.9444m164.6444,20.9444c-18.7558,40.8334-29.3779,120.0778-32.6779,252.5889,35.4112,12.3889,55.0446,48.5556,133.4334,48.5556,46.5,0,123.7555-45.8,198.1665-121.3445-122.6332-120.9111-199.7555-182.7333-248.3666-200.7444a40.1623,40.1623,0,0,0-50.5554,20.9444m131.2334-101.6111c17.9443,48.4444,79.3775,125.1778,199.4666,247.0778,75.4889-86.7889,142.7555-203.0667,164.4111-331.4-187.9334.3111-293.5666,11.0889-342.9444,33.7555a40.1745,40.1745,0,0,0-20.9333,50.5667m249.6666-517.5555a602.0227,602.0227,0,0,1-45.0446,50.2c-116.8111,118.9667-186.9222,204.3777-204.622,252.1444a40.1746,40.1746,0,0,0,20.9333,50.5667c49.8664,22.9,157.0333,33.6777,348.5111,33.7777,1.0112-12.8889,1.711-25.8444,1.711-38.9222,0-171.8444-50.6554-283-121.4888-347.7666M790.7832,1496.4957c-49.3666-22.6666-155.011-33.4444-342.9442-33.7555,21.6666,128.3333,88.922,244.6111,164.4109,331.4,120.0891-121.9,181.5223-198.6334,199.4778-247.0778a40.1906,40.1906,0,0,0-20.9445-50.5667m455.5447-540.5889c51.3441,0,104.1443,13.2334,151.4333,42.9334-16.078,22.8445-35.278,45.0111-56.9444,66.6667-119.3892,117.2778-185.3557,167.9444-233.2225,185.6778a40.1624,40.1624,0,0,1-50.5554-20.9445c-14.5555-31.6889-24.2113-96.7-29.3444-203.3445,76.3445-12.111,114.6556-70.9889,218.6334-70.9889"/></svg>