<svg id="Layer_1" data-name="Layer 1" xmlns="http://www.w3.org/2000/svg" viewBox="0 0 2000 2000"><defs><style>.cls-1{fill:gray;}</style></defs><path class="cls-1" d="M976.7445,796.9511c0,249.8223-10.7778,383.1778-33.7889,433.2889A40.167,40.167,0,0,1,892.4,1251.1845c-51.7111-19.1667-135.6445-87.8445-272.3222-224.5333l-32.8889,32.8777c136.6888,136.6889,205.3777,220.6111,224.5333,272.3222a40.18,40.18,0,0,1-20.9445,50.5667c-50.1111,23.0111-158.0222,33.7889-351.3222,33.7889v46.5c193.3,0,301.2111,10.7778,351.3222,33.7889a40.18,40.18,0,0,1,20.9445,50.5667c-19.1556,51.7-87.8445,135.6333-224.5333,272.3221l32.8889,32.8778C756.7556,1715.5734,840.689,1646.8845,892.4,1627.7289a40.1671,40.1671,0,0,1,50.5555,20.9444c23.0111,50.1112,33.7889,158.0334,33.7889,351.3223h46.5c0-193.3,10.7777-301.2111,33.8-351.3223a40.1627,40.1627,0,0,1,50.5555-20.9444c51.7111,19.1667,135.6445,87.8445,272.3223,224.5333l32.8777-32.8778c-136.6778-136.6888-205.3666-220.611-224.5333-272.3221a40.18,40.18,0,0,1,20.9445-50.5667c50.1221-23.0111,158.0333-33.7889,351.3332-33.7889v-46.5c-193.3,0-301.2111-10.7778-351.3332-33.7889a40.18,40.18,0,0,1-20.9445-50.5667c17.7111-47.7777,87.8111-133.1778,204.6333-252.1444,89.0445-89.0555,137.8445-186.5555,137.8445-309.1333,0-178.3333-148.2222-366.2555-372.7444-576.3222-92.0334-86.1-129.3557-194.2556-129.3557-194.2556h-51.9Zm46.5,0V488.64c252.7,40,426.4222,199.3554,426.4222,361.9332,0,80-43.5777,149.6667-108.8556,214.9333C1221.4334,1182.7844,1155.4667,1233.44,1107.6,1251.1845a40.1627,40.1627,0,0,1-50.5555-20.9445c-23.0223-50.1111-33.8-183.4666-33.8-433.2889"/></svg>