<svg id="Layer_1" data-name="Layer 1" xmlns="http://www.w3.org/2000/svg" viewBox="0 0 2000 2000"><defs><style>.cls-1{fill:gray;}</style></defs><path class="cls-1" d="M1462.0112,453.56c3.7883,17.9,18.3662,35.7556,44.8107,68.3667l-1.9111,1.9111c-32.6-26.4443-50.4666-41.0333-68.3668-44.811-9.2-1.9445-20.2,2.6-25.3439,10.5-9.9779,15.3334-12.3006,38.2667-16.6558,80.0222h-2.7c-4.3559-41.7555-6.6779-64.6888-16.6558-80.0222-5.1331-7.8888-16.1336-12.4444-25.3445-10.5-17.9,3.7777-35.7666,18.3667-68.3668,44.811l-1.9111-1.9111c26.4445-32.6111,41.0332-50.4666,44.8113-68.3667,1.9443-9.211-2.6-20.2-10.5-25.3445-15.3334-9.9777-38.2663-12.3-80.0218-16.6554v-2.7c41.7555-4.3555,64.6884-6.6778,80.0218-16.6556,7.8892-5.1333,12.4444-16.1333,10.5-25.3444-3.7781-17.9-18.3668-35.7668-44.8113-68.3667l1.9111-1.9112c32.6,26.4445,50.4665,41.0222,68.3668,44.8112,9.2109,1.9444,20.2-2.6112,25.3445-10.5,9.9779-15.3334,12.3-38.2779,16.6558-80.0334h2.7c4.3552,41.7555,6.6779,64.7,16.6558,80.0334,5.1331,7.8887,16.133,12.4443,25.3554,10.5,17.8887-3.789,35.7557-18.3667,68.3553-44.8112l1.9111,1.9112c-26.4445,32.6-41.0224,50.4666-44.8107,68.3667-1.945,9.2,2.611,20.2,10.4994,25.3444,15.3334,9.9778,38.2779,12.3,80.0334,16.6556v2.7c-41.7555,4.3555-64.7,6.6777-80.0334,16.6554-7.8884,5.1334-12.4444,16.1335-10.4994,25.3445M982.989,1179.3933C862.7,1178.1822,793.4,1170.271,759.8221,1154.8156l-.0109-.0112a29.2966,29.2966,0,0,1-15.2557-36.8555c13.9777-37.8445,64.2334-99.2778,164.3446-199.3778l-24.0556-24.0666C784.7332,994.6155,723.3,1044.8711,685.4555,1058.8489l-.0112.0111a29.3238,29.3238,0,0,1-36.8554-15.2778c-16.8667-36.6333-24.7667-115.6222-24.7667-257.1889v-196.6H982.989Zm-24.7779,257.3889h0a29.3146,29.3146,0,0,1-36.8666,15.2666c-23.8668-8.8222-57.1557-32.1111-103.5777-73.211-41.1-46.4334-64.4-79.7223-73.2113-103.5889l-.0112-.0111a29.3137,29.3137,0,0,1,15.2778-36.8556c33.5558-15.4555,102.8-23.3556,222.978-24.5777-1.2224,120.1666-9.1335,189.411-24.589,222.9777M846.9888,1548.0044c-33.5667,15.4555-102.811,23.3667-222.9777,24.5889,1.2224-120.1777,9.1223-189.4222,24.5778-222.9777l.0112-.0111a29.3075,29.3075,0,0,1,36.8554-15.2667c23.8668,8.8222,57.1557,32.1222,103.5889,73.2111,41.0888,46.4333,64.4,79.7222,73.2113,103.5888v.0111a29.3081,29.3081,0,0,1-15.2669,36.8556M1546.2112,451.9933c36.6333-16.8666,115.6217-24.7665,257.1886-24.7665V393.1934c-141.5669,0-220.5553-7.9-257.1886-24.7667l-.0115-.011a29.3069,29.3069,0,0,1-15.2554-36.8556c13.9669-37.8445,64.2334-99.2778,164.3446-199.3778l-24.0668-24.0667c-100.1,100.1111-161.5336,150.3666-199.3781,164.3445l-.0109.011a29.3241,29.3241,0,0,1-36.8557-15.2778C1418.1107,220.56,1410.2107,141.5712,1410.2107.0044h-34.0332c0,141.5668-7.9,220.5556-24.7667,257.1889l-.0109.0112a29.3025,29.3025,0,0,1-36.8557,15.2556c-37.833-13.9779-99.2778-64.2334-199.3775-164.3445l-24.056,24.0667c100.1,100.1,150.3561,161.5333,164.3447,199.3778v.011a29.3133,29.3133,0,0,1-15.2778,36.8556c-36.6333,16.8667-115.6223,24.7667-257.1886,24.7667h-393.2v393.2c0,141.5667-7.9,220.5556-24.7667,257.1889l-.0112.0111a29.3024,29.3024,0,0,1-36.8554,15.2556c-37.8445-13.9778-99.2778-64.2334-199.3778-164.3444l-24.0668,24.0666c100.1112,100.1,150.3777,161.5333,164.3446,199.3778l.0108.0111a29.313,29.313,0,0,1-15.2777,36.8556c-36.6333,16.8666-115.622,24.7666-257.1886,24.7666v34.0333c141.5666,0,220.5553,7.9,257.1886,24.7667l.0111.0111a29.2923,29.2923,0,0,1,15.2558,36.8556c-13.9669,37.8333-64.2334,99.2777-164.3446,199.3778l24.0668,24.0666c100.1-100.1111,161.5333-150.3778,199.3778-164.3555h.0108a29.3134,29.3134,0,0,1,36.8558,15.2778c16.8667,36.6333,24.7667,115.6222,24.7667,257.1888,141.5666,0,220.5556,7.9,257.2,24.7778a29.3151,29.3151,0,0,1,15.2669,36.8667c-13.9781,37.8333-64.2446,99.2666-164.3446,199.3778l24.0556,24.0555c100.1112-100.1,161.5445-150.3667,199.3778-164.3444h.022a29.2993,29.2993,0,0,1,36.8446,15.2666c16.8779,36.6445,24.7779,115.6223,24.7779,257.2h34.022c0-141.5777,7.9-220.5555,24.7779-257.2v-.0111a29.3194,29.3194,0,0,1,36.8666-15.2555c37.833,13.9777,99.2777,64.2444,199.3774,164.3444l24.056-24.0555c-100.1-100.1112-150.3669-161.5445-164.3446-199.3778v-.0223a29.2993,29.2993,0,0,1,15.2669-36.8444c36.6442-16.8778,115.6332-24.7778,257.2-24.7778v-34.0222c-141.5663,0-220.5553-7.9-257.2-24.7778a29.3145,29.3145,0,0,1-15.2669-36.8667c13.9777-37.8333,64.2443-99.2666,164.3446-199.3778l-24.056-24.0555c-100.1,100.1-161.5444,150.3667-199.3774,164.3444h-.0224a29.3093,29.3093,0,0,1-36.8442-15.2666c-16.8782-36.6444-24.7779-115.6333-24.7779-257.2V427.4044c120.2891,1.2223,189.5891,9.1223,223.1666,24.5889l.0108.0112a29.3081,29.3081,0,0,1,15.267,36.8556c-13.9886,37.8333-64.2443,99.2777-164.3447,199.3777l24.056,24.0555c100.1-100.1,161.5445-150.3665,199.3775-164.3444h.0108a29.3135,29.3135,0,0,1,36.8558,15.2778c16.8667,36.6333,24.7667,115.6222,24.7667,257.1889h34.0332c0-141.5667,7.9-220.5556,24.7667-257.1889l.0115-.0111a29.3119,29.3119,0,0,1,36.8551-15.2667c37.8445,13.9779,99.2777,64.2445,199.3781,164.3444l24.0668-24.0555c-100.1112-100.1-150.3777-161.5444-164.3446-199.3777l-.0108-.0112a29.3237,29.3237,0,0,1,15.2777-36.8556"/></svg>