<svg viewBox="0 0 1000 1000" xmlns="http://www.w3.org/2000/svg" overflow="visible"><path d="M760.66 500C727.12 437.38 669.57 374.76 622.77 320.65C575.97 266.54 539.93 220.94 521.26 187.15C502.59 153.36 501.29 131.37 500 131.37C498.71 131.37 497.4 153.36 478.74 187.15C460.07 220.94 424.03 266.54 377.23 320.65C330.43 374.76 272.88 437.38 239.34 500C205.8 562.62 196.27 625.24 212.25 679.35C228.23 733.46 269.71 779.06 321.92 812.85C374.13 846.64 437.07 868.63 500.01 868.63C562.95 868.63 625.89 846.64 678.1 812.85C730.31 779.06 771.79 733.46 787.77 679.35C803.75 625.24 794.22 562.62 760.68 500C760.68 500 760.68 500 760.68 500M856.07 500C843.79 437.38 798.72 374.76 750.2 320.65C701.68 266.54 649.73 220.94 607.46 187.15C565.19 153.36 532.59 131.37 500 131.37C467.41 131.37 434.81 153.36 392.54 187.15C350.27 220.94 298.31 266.54 249.8 320.65C201.28 374.76 156.21 437.38 143.93 500C131.65 562.62 152.18 625.24 189.41 679.35C226.65 733.46 280.59 779.06 335.14 812.85C389.69 846.64 444.84 868.63 500 868.63C555.16 868.63 610.31 846.64 664.86 812.85C719.41 779.06 773.36 733.46 810.59 679.35C847.83 625.24 868.35 562.62 856.07 500C856.07 500 856.07 500 856.07 500M856.07 500C868.35 437.38 847.82 374.76 810.59 320.65C773.35 266.54 719.41 220.94 664.86 187.15C610.31 153.36 555.16 131.37 500 131.37C444.84 131.37 389.69 153.36 335.14 187.15C280.59 220.94 226.64 266.54 189.41 320.65C152.17 374.76 131.65 437.38 143.93 500C156.21 562.62 201.28 625.24 249.8 679.35C298.32 733.46 350.27 779.06 392.54 812.85C434.81 846.64 467.41 868.63 500 868.63C532.59 868.63 565.19 846.64 607.46 812.85C649.73 779.06 701.69 733.46 750.2 679.35C798.72 625.24 843.79 562.62 856.07 500C856.07 500 856.07 500 856.07 500M760.66 500C794.2 437.38 803.73 374.76 787.75 320.65C771.77 266.54 730.29 220.94 678.08 187.15C625.87 153.36 562.93 131.37 499.99 131.37C437.05 131.37 374.11 153.36 321.9 187.15C269.69 220.94 228.21 266.54 212.23 320.65C196.25 374.76 205.78 437.38 239.32 500C272.86 562.62 330.41 625.24 377.21 679.35C424.01 733.46 460.05 779.06 478.72 812.85C497.39 846.64 498.69 868.63 499.98 868.63C501.27 868.63 502.58 846.64 521.24 812.85C539.91 779.06 575.95 733.46 622.75 679.35C669.55 625.24 727.1 562.62 760.64 500C760.64 500 760.64 500 760.64 500M595.41 500C641.23 437.38 678.25 374.76 687.82 320.65C697.38 266.54 679.48 220.94 643.6 187.15C607.72 153.36 553.86 131.37 500.01 131.37C446.16 131.37 392.3 153.36 356.42 187.15C320.54 220.94 302.64 266.54 312.2 320.65C321.76 374.76 358.79 437.38 404.61 500C450.43 562.62 505.03 625.24 537.57 679.35C570.11 733.46 580.58 779.06 570.65 812.85C560.71 846.64 530.37 868.63 500.02 868.63C469.67 868.63 439.33 846.64 429.39 812.85C419.45 779.06 429.93 733.46 462.47 679.35C495.01 625.24 549.61 562.62 595.43 500C595.43 500 595.43 500 595.43 500M595.41 500C549.59 437.38 494.99 374.76 462.45 320.65C429.91 266.54 419.44 220.94 429.37 187.15C439.31 153.36 469.65 131.37 500 131.37C530.35 131.37 560.69 153.36 570.63 187.15C580.57 220.94 570.09 266.54 537.55 320.65C505.01 374.76 450.41 437.38 404.59 500C358.77 562.62 321.75 625.24 312.18 679.35C302.62 733.46 320.52 779.06 356.4 812.85C392.28 846.64 446.14 868.63 499.99 868.63C553.84 868.63 607.7 846.64 643.58 812.85C679.46 779.06 697.36 733.46 687.8 679.35C678.24 625.24 641.21 562.62 595.39 500C595.39 500 595.39 500 595.39 500" stroke="#000000" fill="none" stroke-width="1" vector-effect="non-scaling-stroke" fill-rule="evenodd"><animate attributeName="d" values="M760.66 500C727.12 437.38 669.57 374.76 622.77 320.65C575.97 266.54 539.93 220.94 521.26 187.15C502.59 153.36 501.29 131.37 500 131.37C498.71 131.37 497.4 153.36 478.74 187.15C460.07 220.94 424.03 266.54 377.23 320.65C330.43 374.76 272.88 437.38 239.34 500C205.8 562.62 196.27 625.24 212.25 679.35C228.23 733.46 269.71 779.06 321.92 812.85C374.13 846.64 437.07 868.63 500.01 868.63C562.95 868.63 625.89 846.64 678.1 812.85C730.31 779.06 771.79 733.46 787.77 679.35C803.75 625.24 794.22 562.62 760.68 500C760.68 500 760.68 500 760.68 500M856.07 500C843.79 437.38 798.72 374.76 750.2 320.65C701.68 266.54 649.73 220.94 607.46 187.15C565.19 153.36 532.59 131.37 500 131.37C467.41 131.37 434.81 153.36 392.54 187.15C350.27 220.94 298.31 266.54 249.8 320.65C201.28 374.76 156.21 437.38 143.93 500C131.65 562.62 152.18 625.24 189.41 679.35C226.65 733.46 280.59 779.06 335.14 812.85C389.69 846.64 444.84 868.63 500 868.63C555.16 868.63 610.31 846.64 664.86 812.85C719.41 779.06 773.36 733.46 810.59 679.35C847.83 625.24 868.35 562.62 856.07 500C856.07 500 856.07 500 856.07 500M856.07 500C868.35 437.38 847.82 374.76 810.59 320.65C773.35 266.54 719.41 220.94 664.86 187.15C610.31 153.36 555.16 131.37 500 131.37C444.84 131.37 389.69 153.36 335.14 187.15C280.59 220.94 226.64 266.54 189.41 320.65C152.17 374.76 131.65 437.38 143.93 500C156.21 562.62 201.28 625.24 249.8 679.35C298.32 733.46 350.27 779.06 392.54 812.85C434.81 846.64 467.41 868.63 500 868.63C532.59 868.63 565.19 846.64 607.46 812.85C649.73 779.06 701.69 733.46 750.2 679.35C798.72 625.24 843.79 562.62 856.07 500C856.07 500 856.07 500 856.07 500M760.66 500C794.2 437.38 803.73 374.76 787.75 320.65C771.77 266.54 730.29 220.94 678.08 187.15C625.87 153.36 562.93 131.37 499.99 131.37C437.05 131.37 374.11 153.36 321.9 187.15C269.69 220.94 228.21 266.54 212.23 320.65C196.25 374.76 205.78 437.38 239.32 500C272.86 562.62 330.41 625.24 377.21 679.35C424.01 733.46 460.05 779.06 478.72 812.85C497.39 846.64 498.69 868.63 499.98 868.63C501.27 868.63 502.58 846.64 521.24 812.85C539.91 779.06 575.95 733.46 622.75 679.35C669.55 625.24 727.1 562.62 760.64 500C760.64 500 760.64 500 760.64 500M595.41 500C641.23 437.38 678.25 374.76 687.82 320.65C697.38 266.54 679.48 220.94 643.6 187.15C607.72 153.36 553.86 131.37 500.01 131.37C446.16 131.37 392.3 153.36 356.42 187.15C320.54 220.94 302.64 266.54 312.2 320.65C321.76 374.76 358.79 437.38 404.61 500C450.43 562.62 505.03 625.24 537.57 679.35C570.11 733.46 580.58 779.06 570.65 812.85C560.71 846.64 530.37 868.63 500.02 868.63C469.67 868.63 439.33 846.64 429.39 812.85C419.45 779.06 429.93 733.46 462.47 679.35C495.01 625.24 549.61 562.62 595.43 500C595.43 500 595.43 500 595.43 500M595.41 500C549.59 437.38 494.99 374.76 462.45 320.65C429.91 266.54 419.44 220.94 429.37 187.15C439.31 153.36 469.65 131.37 500 131.37C530.35 131.37 560.69 153.36 570.63 187.15C580.57 220.94 570.09 266.54 537.55 320.65C505.01 374.76 450.41 437.38 404.59 500C358.77 562.62 321.75 625.24 312.18 679.35C302.62 733.46 320.52 779.06 356.4 812.85C392.28 846.64 446.14 868.63 499.99 868.63C553.84 868.63 607.7 846.64 643.58 812.85C679.46 779.06 697.36 733.46 687.8 679.35C678.24 625.24 641.21 562.62 595.39 500C595.39 500 595.39 500 595.39 500;M684.32 500C643.24 437.38 585.18 374.76 544.12 320.65C503.05 266.54 478.97 220.94 474.45 187.15C469.93 153.36 484.97 131.37 500 131.37C515.03 131.37 530.07 153.36 525.55 187.15C521.03 220.94 496.95 266.54 455.88 320.65C414.81 374.76 356.76 437.38 315.68 500C274.6 562.62 250.5 625.24 253.82 679.35C257.14 733.46 287.88 779.06 333.48 812.85C379.08 846.64 439.54 868.63 499.99 868.63C560.44 868.63 620.9 846.64 666.5 812.85C712.1 779.06 742.84 733.46 746.16 679.35C749.48 625.24 725.38 562.62 684.3 500C684.3 500 684.3 500 684.3 500M819.25 500C795.53 437.38 742.41 374.76 693.07 320.65C643.73 266.54 598.18 220.94 566.63 187.15C535.08 153.36 517.54 131.37 500 131.37C482.46 131.37 464.92 153.36 433.37 187.15C401.82 220.94 356.27 266.54 306.93 320.65C257.59 374.76 204.47 437.38 180.75 500C157.03 562.62 162.73 625.24 190.27 679.35C217.81 733.46 267.21 779.06 322.48 812.85C377.74 846.64 438.87 868.63 500 868.63C561.13 868.63 622.26 846.64 677.52 812.85C732.78 779.06 782.18 733.46 809.73 679.35C837.27 625.24 842.97 562.62 819.25 500C819.25 500 819.25 500 819.25 500M868.63 500C868.63 437.38 834.67 374.76 790.28 320.65C745.89 266.54 691.07 220.94 640.95 187.15C590.83 153.36 545.41 131.37 499.99 131.37C454.57 131.37 409.15 153.36 359.03 187.15C308.91 220.94 254.09 266.54 209.7 320.65C165.31 374.76 131.35 437.38 131.35 500C131.35 562.62 165.31 625.24 209.7 679.35C254.09 733.46 308.91 779.06 359.03 812.85C409.15 846.64 454.57 868.63 499.99 868.63C545.41 868.63 590.83 846.64 640.95 812.85C691.07 779.06 745.89 733.46 790.28 679.35C834.67 625.24 868.63 562.62 868.63 500C868.63 500 868.63 500 868.63 500M819.25 500C842.97 437.38 837.27 374.76 809.73 320.65C782.19 266.54 732.79 220.94 677.52 187.15C622.26 153.36 561.13 131.37 500 131.37C438.87 131.37 377.74 153.36 322.48 187.15C267.22 220.94 217.82 266.54 190.27 320.65C162.73 374.76 157.03 437.38 180.75 500C204.47 562.62 257.59 625.24 306.93 679.35C356.27 733.46 401.82 779.06 433.37 812.85C464.92 846.64 482.46 868.63 500 868.63C517.54 868.63 535.08 846.64 566.63 812.85C598.18 779.06 643.73 733.46 693.07 679.35C742.41 625.24 795.53 562.62 819.25 500C819.25 500 819.25 500 819.25 500M684.32 500C725.4 437.38 749.5 374.76 746.18 320.65C742.86 266.54 712.12 220.94 666.52 187.15C620.92 153.36 560.46 131.37 500.01 131.37C439.56 131.37 379.1 153.36 333.5 187.15C287.9 220.94 257.16 266.54 253.84 320.65C250.52 374.76 274.62 437.38 315.7 500C356.78 562.62 414.84 625.24 455.9 679.35C496.97 733.46 521.05 779.06 525.57 812.85C530.09 846.64 515.05 868.63 500.02 868.63C484.99 868.63 469.95 846.64 474.47 812.85C478.99 779.06 503.07 733.46 544.14 679.35C585.21 625.24 643.26 562.62 684.34 500C684.34 500 684.34 500 684.34 500M500 500C452.57 437.38 405.14 374.76 383.34 320.65C361.55 266.54 365.39 220.94 389.11 187.15C412.83 153.36 456.41 131.37 500 131.37C543.59 131.37 587.17 153.36 610.89 187.15C634.61 220.94 638.45 266.54 616.66 320.65C594.87 374.76 547.43 437.38 500 500C452.57 562.62 405.14 625.24 383.34 679.35C361.55 733.46 365.39 779.06 389.11 812.85C412.83 846.64 456.41 868.63 500 868.63C543.59 868.63 587.17 846.64 610.89 812.85C634.61 779.06 638.45 733.46 616.66 679.35C594.87 625.24 547.43 562.62 500 500C500 500 500 500 500 500;M595.41 500C549.59 437.38 494.99 374.76 462.45 320.65C429.91 266.54 419.44 220.94 429.37 187.15C439.31 153.36 469.65 131.37 500 131.37C530.35 131.37 560.69 153.36 570.63 187.15C580.57 220.94 570.09 266.54 537.55 320.65C505.01 374.76 450.41 437.38 404.59 500C358.77 562.62 321.75 625.24 312.18 679.35C302.62 733.46 320.52 779.06 356.4 812.85C392.28 846.64 446.14 868.63 499.99 868.63C553.84 868.63 607.7 846.64 643.58 812.85C679.46 779.06 697.36 733.46 687.8 679.35C678.24 625.24 641.21 562.62 595.39 500C595.39 500 595.39 500 595.39 500M760.66 500C727.12 437.38 669.57 374.76 622.77 320.65C575.97 266.54 539.93 220.94 521.26 187.15C502.59 153.36 501.29 131.37 500 131.37C498.71 131.37 497.4 153.36 478.74 187.15C460.07 220.94 424.03 266.54 377.23 320.65C330.43 374.76 272.88 437.38 239.34 500C205.8 562.62 196.27 625.24 212.25 679.35C228.23 733.46 269.71 779.06 321.92 812.85C374.13 846.64 437.07 868.63 500.01 868.63C562.95 868.63 625.89 846.64 678.1 812.85C730.31 779.06 771.79 733.46 787.77 679.35C803.75 625.24 794.22 562.62 760.68 500C760.68 500 760.68 500 760.68 500M856.07 500C843.79 437.38 798.72 374.76 750.2 320.65C701.68 266.54 649.73 220.94 607.46 187.15C565.19 153.36 532.59 131.37 500 131.37C467.41 131.37 434.81 153.36 392.54 187.15C350.27 220.94 298.31 266.54 249.8 320.65C201.28 374.76 156.21 437.38 143.93 500C131.65 562.62 152.18 625.24 189.41 679.35C226.65 733.46 280.59 779.06 335.14 812.85C389.69 846.64 444.84 868.63 500 868.63C555.16 868.63 610.31 846.64 664.86 812.85C719.41 779.06 773.36 733.46 810.59 679.35C847.83 625.24 868.35 562.62 856.07 500C856.07 500 856.07 500 856.07 500M856.07 500C868.35 437.38 847.82 374.76 810.59 320.65C773.35 266.54 719.41 220.94 664.86 187.15C610.31 153.36 555.16 131.37 500 131.37C444.84 131.37 389.69 153.36 335.14 187.15C280.59 220.94 226.64 266.54 189.41 320.65C152.17 374.76 131.65 437.38 143.93 500C156.21 562.62 201.28 625.24 249.8 679.35C298.32 733.46 350.27 779.06 392.54 812.85C434.81 846.64 467.41 868.63 500 868.63C532.59 868.63 565.19 846.64 607.46 812.85C649.73 779.06 701.69 733.46 750.2 679.35C798.72 625.24 843.79 562.62 856.07 500C856.07 500 856.07 500 856.07 500M760.66 500C794.2 437.38 803.73 374.76 787.75 320.65C771.77 266.54 730.29 220.94 678.08 187.15C625.87 153.36 562.93 131.37 499.99 131.37C437.05 131.37 374.11 153.36 321.9 187.15C269.69 220.94 228.21 266.54 212.23 320.65C196.25 374.76 205.78 437.38 239.32 500C272.86 562.62 330.41 625.24 377.21 679.35C424.01 733.46 460.05 779.06 478.72 812.85C497.39 846.64 498.69 868.63 499.98 868.63C501.27 868.63 502.58 846.64 521.24 812.85C539.91 779.06 575.95 733.46 622.75 679.35C669.55 625.24 727.1 562.62 760.64 500C760.64 500 760.64 500 760.64 500M404.59 500C358.77 437.38 321.75 374.76 312.18 320.65C302.62 266.54 320.52 220.94 356.4 187.15C392.28 153.36 446.14 131.37 499.99 131.37C553.84 131.37 607.7 153.36 643.58 187.15C679.46 220.94 697.36 266.54 687.8 320.65C678.24 374.76 641.21 437.38 595.39 500C549.57 562.62 494.97 625.24 462.43 679.35C429.89 733.46 419.42 779.06 429.35 812.85C439.29 846.64 469.63 868.63 499.98 868.63C530.33 868.63 560.67 846.64 570.61 812.85C580.55 779.06 570.07 733.46 537.53 679.35C504.99 625.24 450.39 562.62 404.57 500C404.57 500 404.57 500 404.57 500" dur="0.75s" repeatCount="indefinite" fill="freeze" calcMode="linear"/></path></svg>